<svg width="70" height="5" fill="none" xmlns="http://www.w3.org/2000/svg"><path d="M0 .33h.853v2.99H2.7v.695H0V.33zm8.268 2.895H6.556l-.326.79h-.874L7 .33h.842L9.49 4.015h-.895l-.326-.79zm-.269-.647l-.584-1.411-.585 1.41H8zM17.873.33l-1.206 3.685h-.916l-.81-2.495-.837 2.495h-.911L11.982.33h.884l.832 2.59.869-2.59h.79l.842 2.611.858-2.611h.816zm9.073 3.748a2.15 2.15 0 01-1.022-.242 1.876 1.876 0 01-.716-.68 1.9 1.9 0 01-.258-.984 1.825 1.825 0 01.974-1.658 2.124 2.124 0 011.027-.247c.32 0 .607.056.863.168.26.112.478.274.653.484l-.547.506a1.177 1.177 0 00-.927-.432c-.228 0-.432.051-.61.153-.18.098-.32.237-.422.416a1.248 1.248 0 00-.147.61c0 .229.049.432.147.611.102.18.242.32.421.421.18.099.383.148.611.148.369 0 .678-.146.927-.437l.547.505a1.707 1.707 0 01-.653.49c-.26.112-.549.168-.868.168zm6.437 0c-.383 0-.728-.082-1.037-.247a1.867 1.867 0 01-.721-.68 1.89 1.89 0 01-.258-.979c0-.361.086-.686.258-.974.175-.29.416-.519.72-.684a2.167 2.167 0 011.038-.247c.383 0 .727.082 1.032.247a1.854 1.854 0 01.985 1.658c0 .362-.088.688-.264.98a1.867 1.867 0 01-.721.679c-.305.165-.65.247-1.032.247zm0-.726c.218 0 .414-.05.59-.148.175-.101.312-.242.41-.42.102-.18.153-.383.153-.612a1.2 1.2 0 00-.153-.61 1.041 1.041 0 00-.41-.416 1.154 1.154 0 00-.59-.153c-.218 0-.414.051-.59.153a1.077 1.077 0 00-.416.416 1.249 1.249 0 00-.147.61c0 .229.05.432.148.611.101.18.24.32.415.421.176.099.373.148.59.148zm8.643.663l-.005-2.211-1.084 1.821h-.385l-1.079-1.774v2.164h-.8V.33h.705l1.38 2.29L42.116.33h.7l.01 3.685h-.8zM47.928.33c.327 0 .61.054.848.163.242.109.428.263.558.463.13.2.195.437.195.711 0 .27-.065.507-.195.71-.13.2-.316.355-.558.464a2.088 2.088 0 01-.848.158h-.742v1.016h-.853V.33h1.596zm-.047 1.974c.256 0 .451-.054.584-.163.134-.112.2-.27.2-.474 0-.207-.066-.365-.2-.474-.133-.112-.328-.168-.584-.168h-.695v1.279h.695zm7.131.921h-1.71l-.327.79H52.1L53.743.33h.843l1.648 3.685h-.895l-.327-.79zm-.268-.647l-.585-1.411-.584 1.41h1.169zM62.628.33v3.685h-.7L60.09 1.778v2.237h-.843V.33h.706l1.832 2.237V.33h.842zm5.273 2.38v1.305h-.852V2.7L65.621.329h.905l.985 1.638.984-1.637h.837L67.9 2.71z" fill="#323264"/></svg>