<svg width="70" height="25" fill="none" xmlns="http://www.w3.org/2000/svg"><path d="M2.644 0H0v19.093h2.644v-7.084c0-1.198.298-2.143.894-2.809.596-.666 1.412-1.012 2.423-1.012.868 0 1.594.32 2.177.932.583.626.881 1.412.881 2.357v7.629h2.657v-7.63c0-1.757-.48-3.141-1.439-4.18-.959-1.038-2.216-1.558-3.745-1.558-.44 0-.88.054-1.308.174a5.49 5.49 0 00-1.076.399 5.455 5.455 0 00-.804.493 5.57 5.57 0 00-.492.399c-.078.08-.142.133-.168.173V0z" fill="#F0145A"/><path d="M17.586 0H14.86v19.077h2.726V0zM33.66 13.49l.136-1.363c0-1.826-.6-3.352-1.826-4.578-1.226-1.227-2.752-1.826-4.578-1.826-1.826 0-3.407.654-4.715 1.962-1.308 1.308-1.962 2.861-1.962 4.715 0 1.907.681 3.542 2.017 4.905 1.335 1.363 2.943 2.044 4.796 2.044.709 0 1.363-.11 2.017-.3.654-.218 1.199-.436 1.58-.654a8.975 8.975 0 001.172-.817c.354-.3.6-.518.709-.655.109-.136.19-.218.245-.3l-1.771-1.77-.41.517c-.272.327-.735.654-1.39 1.008a4.563 4.563 0 01-2.152.518c-1.063 0-1.962-.327-2.725-1.008-.763-.681-1.227-1.472-1.363-2.398h10.22zm-6.268-5.45c1.008 0 1.826.299 2.507.871.654.6 1.063 1.336 1.226 2.262H23.55c.245-.926.681-1.662 1.363-2.262.654-.572 1.499-.872 2.48-.872zM46.37 18.286c0 1.2-.355 2.18-1.09 2.943-.71.736-1.608 1.118-2.726 1.118a5.15 5.15 0 01-1.444-.218 4.283 4.283 0 01-1.117-.49 6.164 6.164 0 01-.845-.628l-.49-.49c-.083-.082-.137-.164-.192-.218l-1.771 1.771.218.273c.136.19.382.436.709.708.327.245.708.518 1.144.79.436.246.981.464 1.663.655.68.19 1.39.3 2.125.3 1.853 0 3.38-.627 4.66-1.881 1.254-1.28 1.88-2.807 1.88-4.66V5.995H46.37v1.363l-.464-.409c-.3-.273-.763-.545-1.417-.818a5.397 5.397 0 00-2.071-.408c-1.663 0-3.08.626-4.306 1.907-1.226 1.281-1.826 2.807-1.826 4.633s.6 3.352 1.826 4.633c1.226 1.281 2.643 1.908 4.306 1.908.463 0 .9-.055 1.363-.164.436-.136.79-.272 1.09-.409.3-.136.572-.3.817-.49s.436-.327.49-.381l.192-.191v1.117zm-7.359-6.023c0-1.144.355-2.098 1.09-2.889.736-.79 1.608-1.199 2.59-1.199.98 0 1.853.41 2.588 1.2.709.79 1.09 1.744 1.09 2.888 0 1.145-.381 2.099-1.09 2.889-.735.79-1.608 1.2-2.589 1.2-.98 0-1.853-.41-2.588-1.2-.736-.79-1.09-1.744-1.09-2.889zm24.309 6.813v-8.448c0-1.39-.518-2.562-1.527-3.488-1.008-.954-2.316-1.417-3.924-1.417a7.06 7.06 0 00-1.853.245c-.6.19-1.09.381-1.444.6a6.74 6.74 0 00-1.036.763 8.633 8.633 0 00-.627.572c-.082.109-.163.19-.218.272l1.771 1.772.355-.463c.218-.3.6-.573 1.172-.873.572-.3 1.199-.436 1.88-.436.79 0 1.444.246 1.962.709.518.463.763 1.063.763 1.744l-4.769.818c-1.172.19-2.126.654-2.78 1.39-.681.735-1.035 1.635-1.035 2.697 0 1.009.436 1.881 1.308 2.644.9.79 1.99 1.172 3.325 1.172.463 0 .899-.055 1.335-.19a5.873 5.873 0 001.117-.382c.3-.137.573-.3.818-.491.245-.19.409-.327.518-.382.082-.081.136-.163.163-.19v1.362h2.725zm-6.269-2.18c-.708 0-1.28-.163-1.69-.49-.435-.327-.626-.709-.626-1.145 0-.463.136-.872.436-1.172.3-.3.709-.518 1.2-.6l4.223-.68v.272c0 1.226-.3 2.153-.926 2.834-.627.654-1.5.981-2.617.981zM69.334 0h-2.726v19.077h2.726V0z" fill="#323264"/></svg>